<svg fill="none" height="24" viewBox="0 0 24 24" width="24" xmlns="http://www.w3.org/2000/svg">
  <path d="m12 2c-5.52 0-10 4.48-10 10s4.48 10 10 10 10-4.48 10-10-4.48-10-10-10zm-3.47 11.47c.29.29.29.77 0 1.06-.15.15-.34.22-.53.22s-.38-.07-.53-.22l-2-2c-.29-.29-.29-.77 0-1.06l2-2c.29-.29.77-.29 1.06 0s.29.77 0 1.06l-1.47 1.47zm5.16-3.51-2 4.67c-.12.28-.4.45-.69.45-.1 0-.2-.02-.29-.06-.38-.16-.56-.6-.39-.99l2-4.67c.16-.38.6-.56.98-.39s.55.61.39.99zm4.84 2.57-2 2c-.15.15-.34.22-.53.22s-.38-.07-.53-.22c-.29-.29-.29-.77 0-1.06l1.47-1.47-1.47-1.47c-.29-.29-.29-.77 0-1.06s.77-.29 1.06 0l2 2c.29.29.29.77 0 1.06z" fill="#343a40"/>
  </svg>